<?xml version="1.0" standalone="no"?>
<!DOCTYPE svg PUBLIC "-//W3C//DTD SVG 20010904//EN"
 "http://www.w3.org/TR/2001/REC-SVG-20010904/DTD/svg10.dtd">
<svg version="1.0" xmlns="http://www.w3.org/2000/svg"
 width="389.000000pt" height="559.000000pt" viewBox="0 0 389.000000 559.000000"
 preserveAspectRatio="xMidYMid meet">
<metadata>
Created by potrace 1.16, written by Peter Selinger 2001-2019
</metadata>
<g transform="translate(0.000000,559.000000) scale(0.100000,-0.100000)"
fill="#000000" stroke="none">
<path d="M554 4938 l-541 -553 274 -3 273 -2 2 -1510 3 -1509 473 436 472 435
0 1629 0 1629 -208 0 -207 0 -541 -552z"/>
<path d="M1640 5433 l0 -60 163 -11 c507 -37 940 -234 1292 -587 325 -326 533
-760 586 -1224 17 -156 7 -468 -21 -606 -83 -422 -255 -759 -537 -1055 -296
-312 -664 -509 -1103 -593 -163 -30 -500 -30 -670 1 -122 22 -306 75 -405 116
l-60 25 -42 -42 c-24 -23 -43 -44 -43 -47 0 -10 230 -97 328 -125 145 -40 314
-65 482 -72 348 -13 666 53 978 202 441 212 786 556 1002 1000 112 230 174
435 206 687 22 178 15 492 -15 659 -107 590 -434 1095 -923 1426 -325 219
-679 335 -1095 358 l-123 7 0 -59z"/>
<path d="M1640 5151 l0 -61 103 0 c443 -1 918 -224 1233 -580 373 -421 528
-1003 414 -1557 -120 -580 -528 -1074 -1065 -1288 -364 -145 -763 -162 -1138
-48 l-88 26 -44 -43 c-25 -24 -42 -47 -37 -51 4 -3 50 -21 102 -38 527 -172
1120 -91 1581 217 488 327 789 845 841 1446 14 169 1 366 -37 546 -139 657
-613 1192 -1240 1399 -178 59 -297 81 -472 88 l-153 6 0 -62z"/>
<path d="M1640 4882 l0 -59 118 -6 c423 -22 800 -217 1072 -555 508 -630 414
-1584 -207 -2101 -215 -179 -445 -284 -717 -328 -123 -19 -404 -13 -510 12
l-70 15 -48 -47 -49 -48 58 -17 c151 -45 439 -62 619 -37 257 36 530 151 744
313 36 28 108 93 160 146 484 490 606 1244 304 1867 -140 287 -381 544 -659
702 -215 122 -505 201 -742 201 l-73 0 0 -58z"/>
<path d="M1640 4602 l0 -62 63 0 c34 0 105 -7 157 -14 509 -77 915 -479 1005
-994 19 -112 19 -315 0 -428 -29 -164 -105 -351 -198 -489 -22 -32 -77 -97
-121 -144 -233 -244 -525 -371 -850 -371 l-122 0 -53 -54 -52 -53 47 -7 c86
-11 299 -6 395 10 265 45 495 167 695 368 163 163 258 316 329 530 52 156 68
279 62 476 -4 132 -10 186 -31 267 -146 582 -626 987 -1208 1019 l-118 7 0
-61z"/>
<path d="M1640 4333 l0 -60 103 -6 c123 -7 233 -35 341 -87 103 -49 163 -92
254 -183 196 -193 294 -449 279 -730 -8 -147 -34 -247 -102 -382 -152 -305
-434 -493 -782 -520 l-93 -7 0 -60 0 -61 93 7 c129 10 228 32 332 73 342 136
579 424 655 793 28 136 24 339 -10 470 -120 458 -505 783 -957 807 l-113 6 0
-60z"/>
<path d="M613 979 c-227 -22 -410 -114 -467 -233 -26 -56 -19 -142 17 -189 57
-74 170 -108 457 -136 227 -22 267 -31 307 -65 33 -28 35 -84 6 -125 -72 -100
-339 -127 -551 -55 -77 26 -89 26 -79 0 8 -20 58 -40 151 -61 100 -22 306 -17
384 10 111 38 178 131 152 210 -25 76 -86 97 -367 124 -222 22 -306 40 -371
78 -106 61 -110 178 -10 269 112 101 366 161 577 136 185 -22 267 -73 279
-173 5 -38 11 -54 22 -54 12 0 15 13 15 57 0 48 -5 62 -31 95 -74 90 -266 135
-491 112z"/>
<path d="M1552 935 c-31 -39 -58 -119 -72 -208 -13 -85 -16 -307 -5 -378 7
-44 5 -48 -33 -88 -29 -30 -47 -41 -69 -41 -27 0 -29 3 -25 28 5 36 -14 106
-34 127 -19 18 -68 20 -82 2 -11 -13 -16 -46 -14 -84 1 -13 19 -41 39 -64 l37
-41 -27 -24 c-50 -43 -118 -28 -142 30 -20 47 -4 98 40 132 41 31 44 44 12 44
-13 0 -37 -15 -57 -35 -27 -28 -34 -44 -38 -88 -3 -37 1 -63 11 -84 17 -32 70
-63 106 -63 35 0 86 26 108 54 14 17 31 26 49 26 38 1 109 33 122 56 8 15 13
10 32 -34 51 -119 134 -133 218 -37 l32 35 14 -33 c26 -63 102 -73 156 -19
l26 27 31 -32 c23 -25 39 -33 64 -33 43 0 100 37 129 85 l22 35 31 -47 c39
-58 69 -75 122 -69 31 4 49 14 78 45 21 23 39 41 42 41 2 0 6 -13 10 -30 9
-41 49 -70 97 -70 32 0 47 8 86 44 l47 44 32 -38 c54 -63 131 -63 198 -1 20
20 45 31 77 35 62 9 96 39 137 120 18 36 38 66 43 66 7 0 8 -41 4 -125 -7
-113 -6 -126 10 -132 27 -10 46 9 89 86 55 99 96 147 119 138 16 -6 17 -15 11
-72 -7 -73 6 -129 35 -145 63 -34 143 17 198 127 18 34 19 43 8 52 -11 10 -20
1 -45 -43 -37 -64 -83 -106 -116 -106 -36 0 -49 32 -42 109 8 79 -6 115 -45
119 -15 2 -36 -2 -47 -8 -22 -11 -69 -76 -113 -155 l-28 -50 6 101 c7 113 -1
144 -41 144 -27 0 -59 -38 -95 -113 -22 -48 -60 -77 -98 -77 -16 0 -20 9 -25
59 -7 77 -29 111 -73 111 -40 0 -54 -21 -54 -78 0 -30 8 -48 37 -82 l37 -43
-28 -23 c-37 -32 -89 -32 -121 1 -20 19 -25 35 -25 71 0 42 4 51 41 85 40 37
46 64 11 52 -30 -11 -54 -37 -107 -118 -63 -97 -86 -118 -126 -118 -53 0 -69
43 -61 165 6 99 0 127 -23 108 -9 -8 -15 -30 -15 -57 0 -79 -85 -203 -139
-203 -32 0 -73 39 -95 91 -13 30 -13 39 -2 55 37 53 96 265 96 345 l0 39 161
0 c147 0 160 1 157 18 -3 15 -20 17 -159 20 l-156 2 -12 40 c-9 30 -18 41 -38
46 -33 9 -53 -4 -78 -49 l-20 -37 -111 0 c-81 0 -115 -4 -123 -13 -6 -8 -8
-17 -4 -20 3 -4 58 -7 121 -7 105 0 114 -1 107 -17 -13 -34 -17 -258 -6 -316
12 -68 4 -92 -56 -158 -41 -45 -79 -51 -109 -18 -16 17 -19 38 -20 113 -1 72
-5 92 -16 94 -18 3 -28 -26 -28 -80 0 -51 -27 -113 -57 -133 -31 -20 -68 -13
-84 17 -15 28 -5 107 20 156 17 33 18 42 7 51 -17 14 -22 8 -71 -93 -46 -94
-101 -156 -138 -156 -33 0 -72 47 -91 110 -14 48 -14 50 14 102 115 216 165
493 103 576 -28 38 -74 41 -101 7z m76 -45 c9 -18 12 -53 9 -120 -5 -103 -35
-213 -90 -330 l-30 -65 -8 60 c-4 33 -4 117 2 186 18 236 70 356 117 269z
m672 -250 c0 -54 -26 -180 -52 -248 -17 -46 -22 -52 -31 -37 -11 20 -4 278 8
308 5 11 18 17 41 17 33 0 34 -1 34 -40z"/>
</g>
</svg>
